<mxfile host="app.diagrams.net" modified="2024-02-08T11:27:44.794Z" agent="Mozilla/5.0 (Macintosh; Intel Mac OS X 10_15_7) AppleWebKit/537.36 (KHTML, like Gecko) Chrome/121.0.0.0 Safari/537.36" etag="YVKAaaLeuTjOOLlLhguk" version="23.1.2" type="device">
  <diagram id="C5RBs43oDa-KdzZeNtuy" name="Page-1">
    <mxGraphModel dx="1547" dy="670" grid="1" gridSize="10" guides="1" tooltips="1" connect="1" arrows="1" fold="1" page="0" pageScale="1" pageWidth="827" pageHeight="1169" math="0" shadow="0">
      <root>
        <mxCell id="WIyWlLk6GJQsqaUBKTNV-0" />
        <mxCell id="WIyWlLk6GJQsqaUBKTNV-1" parent="WIyWlLk6GJQsqaUBKTNV-0" />
        <mxCell id="zkfFHV4jXpPFQw0GAbJ--0" value="User" style="swimlane;fontStyle=2;align=center;verticalAlign=top;childLayout=stackLayout;horizontal=1;startSize=26;horizontalStack=0;resizeParent=1;resizeLast=0;collapsible=1;marginBottom=0;rounded=0;shadow=0;strokeWidth=1;" parent="WIyWlLk6GJQsqaUBKTNV-1" vertex="1">
          <mxGeometry x="200" y="120" width="160" height="110" as="geometry">
            <mxRectangle x="230" y="140" width="160" height="26" as="alternateBounds" />
          </mxGeometry>
        </mxCell>
        <mxCell id="zkfFHV4jXpPFQw0GAbJ--1" value="+ id: UUID" style="text;align=left;verticalAlign=top;spacingLeft=4;spacingRight=4;overflow=hidden;rotatable=0;points=[[0,0.5],[1,0.5]];portConstraint=eastwest;" parent="zkfFHV4jXpPFQw0GAbJ--0" vertex="1">
          <mxGeometry y="26" width="160" height="26" as="geometry" />
        </mxCell>
        <mxCell id="zkfFHV4jXpPFQw0GAbJ--3" value="..." style="text;align=left;verticalAlign=top;spacingLeft=4;spacingRight=4;overflow=hidden;rotatable=0;points=[[0,0.5],[1,0.5]];portConstraint=eastwest;rounded=0;shadow=0;html=0;" parent="zkfFHV4jXpPFQw0GAbJ--0" vertex="1">
          <mxGeometry y="52" width="160" height="26" as="geometry" />
        </mxCell>
        <mxCell id="zkfFHV4jXpPFQw0GAbJ--4" value="" style="line;html=1;strokeWidth=1;align=left;verticalAlign=middle;spacingTop=-1;spacingLeft=3;spacingRight=3;rotatable=0;labelPosition=right;points=[];portConstraint=eastwest;" parent="zkfFHV4jXpPFQw0GAbJ--0" vertex="1">
          <mxGeometry y="78" width="160" height="8" as="geometry" />
        </mxCell>
        <mxCell id="QlektbFsVMy9iI1Y13lA-1" value="House" style="swimlane;fontStyle=2;align=center;verticalAlign=top;childLayout=stackLayout;horizontal=1;startSize=26;horizontalStack=0;resizeParent=1;resizeLast=0;collapsible=1;marginBottom=0;rounded=0;shadow=0;strokeWidth=1;" parent="WIyWlLk6GJQsqaUBKTNV-1" vertex="1">
          <mxGeometry x="400" y="270" width="160" height="110" as="geometry">
            <mxRectangle x="230" y="140" width="160" height="26" as="alternateBounds" />
          </mxGeometry>
        </mxCell>
        <mxCell id="QlektbFsVMy9iI1Y13lA-2" value="Name" style="text;align=left;verticalAlign=top;spacingLeft=4;spacingRight=4;overflow=hidden;rotatable=0;points=[[0,0.5],[1,0.5]];portConstraint=eastwest;" parent="QlektbFsVMy9iI1Y13lA-1" vertex="1">
          <mxGeometry y="26" width="160" height="26" as="geometry" />
        </mxCell>
        <mxCell id="QlektbFsVMy9iI1Y13lA-4" value="" style="line;html=1;strokeWidth=1;align=left;verticalAlign=middle;spacingTop=-1;spacingLeft=3;spacingRight=3;rotatable=0;labelPosition=right;points=[];portConstraint=eastwest;" parent="QlektbFsVMy9iI1Y13lA-1" vertex="1">
          <mxGeometry y="52" width="160" height="8" as="geometry" />
        </mxCell>
        <mxCell id="QlektbFsVMy9iI1Y13lA-6" value="Owner Relationship" style="swimlane;fontStyle=2;align=center;verticalAlign=top;childLayout=stackLayout;horizontal=1;startSize=26;horizontalStack=0;resizeParent=1;resizeLast=0;collapsible=1;marginBottom=0;rounded=0;shadow=0;strokeWidth=1;" parent="WIyWlLk6GJQsqaUBKTNV-1" vertex="1">
          <mxGeometry x="400" y="120" width="160" height="110" as="geometry">
            <mxRectangle x="230" y="140" width="160" height="26" as="alternateBounds" />
          </mxGeometry>
        </mxCell>
        <mxCell id="QlektbFsVMy9iI1Y13lA-7" value="Name" style="text;align=left;verticalAlign=top;spacingLeft=4;spacingRight=4;overflow=hidden;rotatable=0;points=[[0,0.5],[1,0.5]];portConstraint=eastwest;" parent="QlektbFsVMy9iI1Y13lA-6" vertex="1">
          <mxGeometry y="26" width="160" height="26" as="geometry" />
        </mxCell>
        <mxCell id="QlektbFsVMy9iI1Y13lA-8" value="Email Address" style="text;align=left;verticalAlign=top;spacingLeft=4;spacingRight=4;overflow=hidden;rotatable=0;points=[[0,0.5],[1,0.5]];portConstraint=eastwest;rounded=0;shadow=0;html=0;" parent="QlektbFsVMy9iI1Y13lA-6" vertex="1">
          <mxGeometry y="52" width="160" height="26" as="geometry" />
        </mxCell>
        <mxCell id="QlektbFsVMy9iI1Y13lA-9" value="" style="line;html=1;strokeWidth=1;align=left;verticalAlign=middle;spacingTop=-1;spacingLeft=3;spacingRight=3;rotatable=0;labelPosition=right;points=[];portConstraint=eastwest;" parent="QlektbFsVMy9iI1Y13lA-6" vertex="1">
          <mxGeometry y="78" width="160" height="8" as="geometry" />
        </mxCell>
        <mxCell id="QlektbFsVMy9iI1Y13lA-11" value="" style="endArrow=none;html=1;rounded=0;exitX=0.5;exitY=1;exitDx=0;exitDy=0;entryX=0.5;entryY=0;entryDx=0;entryDy=0;" parent="WIyWlLk6GJQsqaUBKTNV-1" source="QlektbFsVMy9iI1Y13lA-6" target="QlektbFsVMy9iI1Y13lA-1" edge="1">
          <mxGeometry width="50" height="50" relative="1" as="geometry">
            <mxPoint x="410" y="360" as="sourcePoint" />
            <mxPoint x="460" y="310" as="targetPoint" />
          </mxGeometry>
        </mxCell>
        <mxCell id="QlektbFsVMy9iI1Y13lA-13" value="" style="endArrow=none;html=1;rounded=0;exitX=1.004;exitY=0.124;exitDx=0;exitDy=0;exitPerimeter=0;" parent="WIyWlLk6GJQsqaUBKTNV-1" source="zkfFHV4jXpPFQw0GAbJ--0" edge="1">
          <mxGeometry width="50" height="50" relative="1" as="geometry">
            <mxPoint x="410" y="360" as="sourcePoint" />
            <mxPoint x="400" y="134" as="targetPoint" />
          </mxGeometry>
        </mxCell>
        <mxCell id="QlektbFsVMy9iI1Y13lA-37" style="edgeStyle=orthogonalEdgeStyle;rounded=0;orthogonalLoop=1;jettySize=auto;html=1;exitX=0.5;exitY=1;exitDx=0;exitDy=0;" parent="WIyWlLk6GJQsqaUBKTNV-1" source="QlektbFsVMy9iI1Y13lA-14" target="QlektbFsVMy9iI1Y13lA-31" edge="1">
          <mxGeometry relative="1" as="geometry" />
        </mxCell>
        <mxCell id="QlektbFsVMy9iI1Y13lA-14" value="Room" style="swimlane;fontStyle=2;align=center;verticalAlign=top;childLayout=stackLayout;horizontal=1;startSize=26;horizontalStack=0;resizeParent=1;resizeLast=0;collapsible=1;marginBottom=0;rounded=0;shadow=0;strokeWidth=1;" parent="WIyWlLk6GJQsqaUBKTNV-1" vertex="1">
          <mxGeometry x="620" y="270" width="160" height="110" as="geometry">
            <mxRectangle x="230" y="140" width="160" height="26" as="alternateBounds" />
          </mxGeometry>
        </mxCell>
        <mxCell id="QlektbFsVMy9iI1Y13lA-15" value="Name" style="text;align=left;verticalAlign=top;spacingLeft=4;spacingRight=4;overflow=hidden;rotatable=0;points=[[0,0.5],[1,0.5]];portConstraint=eastwest;" parent="QlektbFsVMy9iI1Y13lA-14" vertex="1">
          <mxGeometry y="26" width="160" height="26" as="geometry" />
        </mxCell>
        <mxCell id="QlektbFsVMy9iI1Y13lA-17" value="" style="line;html=1;strokeWidth=1;align=left;verticalAlign=middle;spacingTop=-1;spacingLeft=3;spacingRight=3;rotatable=0;labelPosition=right;points=[];portConstraint=eastwest;" parent="QlektbFsVMy9iI1Y13lA-14" vertex="1">
          <mxGeometry y="52" width="160" height="8" as="geometry" />
        </mxCell>
        <mxCell id="QlektbFsVMy9iI1Y13lA-18" value="1:M" style="text;html=1;align=center;verticalAlign=middle;resizable=0;points=[];autosize=1;strokeColor=none;fillColor=none;" parent="WIyWlLk6GJQsqaUBKTNV-1" vertex="1">
          <mxGeometry x="360" y="98" width="40" height="30" as="geometry" />
        </mxCell>
        <mxCell id="QlektbFsVMy9iI1Y13lA-19" value="M&lt;br&gt;:&lt;br&gt;1" style="text;html=1;align=center;verticalAlign=middle;resizable=0;points=[];autosize=1;strokeColor=none;fillColor=none;" parent="WIyWlLk6GJQsqaUBKTNV-1" vertex="1">
          <mxGeometry x="450" y="218" width="30" height="60" as="geometry" />
        </mxCell>
        <mxCell id="QlektbFsVMy9iI1Y13lA-20" value="1:M" style="text;html=1;align=center;verticalAlign=middle;resizable=0;points=[];autosize=1;strokeColor=none;fillColor=none;" parent="WIyWlLk6GJQsqaUBKTNV-1" vertex="1">
          <mxGeometry x="570" y="278" width="40" height="30" as="geometry" />
        </mxCell>
        <mxCell id="QlektbFsVMy9iI1Y13lA-21" value="" style="endArrow=none;html=1;rounded=0;entryX=0;entryY=0.5;entryDx=0;entryDy=0;exitX=1;exitY=0.5;exitDx=0;exitDy=0;" parent="WIyWlLk6GJQsqaUBKTNV-1" source="QlektbFsVMy9iI1Y13lA-2" target="QlektbFsVMy9iI1Y13lA-15" edge="1">
          <mxGeometry width="50" height="50" relative="1" as="geometry">
            <mxPoint x="410" y="360" as="sourcePoint" />
            <mxPoint x="460" y="310" as="targetPoint" />
          </mxGeometry>
        </mxCell>
        <mxCell id="QlektbFsVMy9iI1Y13lA-23" value="Device Specification" style="swimlane;fontStyle=2;align=center;verticalAlign=top;childLayout=stackLayout;horizontal=1;startSize=26;horizontalStack=0;resizeParent=1;resizeLast=0;collapsible=1;marginBottom=0;rounded=0;shadow=0;strokeWidth=1;" parent="WIyWlLk6GJQsqaUBKTNV-1" vertex="1">
          <mxGeometry x="400" y="462" width="160" height="112" as="geometry">
            <mxRectangle x="230" y="140" width="160" height="26" as="alternateBounds" />
          </mxGeometry>
        </mxCell>
        <mxCell id="QlektbFsVMy9iI1Y13lA-24" value="Name" style="text;align=left;verticalAlign=top;spacingLeft=4;spacingRight=4;overflow=hidden;rotatable=0;points=[[0,0.5],[1,0.5]];portConstraint=eastwest;" parent="QlektbFsVMy9iI1Y13lA-23" vertex="1">
          <mxGeometry y="26" width="160" height="26" as="geometry" />
        </mxCell>
        <mxCell id="QlektbFsVMy9iI1Y13lA-26" value="" style="line;html=1;strokeWidth=1;align=left;verticalAlign=middle;spacingTop=-1;spacingLeft=3;spacingRight=3;rotatable=0;labelPosition=right;points=[];portConstraint=eastwest;" parent="QlektbFsVMy9iI1Y13lA-23" vertex="1">
          <mxGeometry y="52" width="160" height="8" as="geometry" />
        </mxCell>
        <mxCell id="QlektbFsVMy9iI1Y13lA-39" value="Series" style="text;align=left;verticalAlign=top;spacingLeft=4;spacingRight=4;overflow=hidden;rotatable=0;points=[[0,0.5],[1,0.5]];portConstraint=eastwest;" parent="QlektbFsVMy9iI1Y13lA-23" vertex="1">
          <mxGeometry y="60" width="160" height="26" as="geometry" />
        </mxCell>
        <mxCell id="QlektbFsVMy9iI1Y13lA-42" value="gpu model, ..." style="text;align=left;verticalAlign=top;spacingLeft=4;spacingRight=4;overflow=hidden;rotatable=0;points=[[0,0.5],[1,0.5]];portConstraint=eastwest;" parent="QlektbFsVMy9iI1Y13lA-23" vertex="1">
          <mxGeometry y="86" width="160" height="26" as="geometry" />
        </mxCell>
        <mxCell id="QlektbFsVMy9iI1Y13lA-27" value="PermissionType" style="swimlane;fontStyle=2;align=center;verticalAlign=top;childLayout=stackLayout;horizontal=1;startSize=26;horizontalStack=0;resizeParent=1;resizeLast=0;collapsible=1;marginBottom=0;rounded=0;shadow=0;strokeWidth=1;" parent="WIyWlLk6GJQsqaUBKTNV-1" vertex="1">
          <mxGeometry x="-140" y="255" width="160" height="90" as="geometry">
            <mxRectangle x="230" y="140" width="160" height="26" as="alternateBounds" />
          </mxGeometry>
        </mxCell>
        <mxCell id="QlektbFsVMy9iI1Y13lA-30" value="" style="line;html=1;strokeWidth=1;align=left;verticalAlign=middle;spacingTop=-1;spacingLeft=3;spacingRight=3;rotatable=0;labelPosition=right;points=[];portConstraint=eastwest;" parent="QlektbFsVMy9iI1Y13lA-27" vertex="1">
          <mxGeometry y="26" width="160" height="8" as="geometry" />
        </mxCell>
        <mxCell id="QlektbFsVMy9iI1Y13lA-28" value="Name" style="text;align=left;verticalAlign=top;spacingLeft=4;spacingRight=4;overflow=hidden;rotatable=0;points=[[0,0.5],[1,0.5]];portConstraint=eastwest;" parent="QlektbFsVMy9iI1Y13lA-27" vertex="1">
          <mxGeometry y="34" width="160" height="26" as="geometry" />
        </mxCell>
        <mxCell id="QlektbFsVMy9iI1Y13lA-43" value="Description" style="text;align=left;verticalAlign=top;spacingLeft=4;spacingRight=4;overflow=hidden;rotatable=0;points=[[0,0.5],[1,0.5]];portConstraint=eastwest;" parent="QlektbFsVMy9iI1Y13lA-27" vertex="1">
          <mxGeometry y="60" width="160" height="26" as="geometry" />
        </mxCell>
        <mxCell id="QlektbFsVMy9iI1Y13lA-31" value="Device" style="swimlane;fontStyle=2;align=center;verticalAlign=top;childLayout=stackLayout;horizontal=1;startSize=26;horizontalStack=0;resizeParent=1;resizeLast=0;collapsible=1;marginBottom=0;rounded=0;shadow=0;strokeWidth=1;" parent="WIyWlLk6GJQsqaUBKTNV-1" vertex="1">
          <mxGeometry x="620" y="462" width="160" height="112" as="geometry">
            <mxRectangle x="230" y="140" width="160" height="26" as="alternateBounds" />
          </mxGeometry>
        </mxCell>
        <mxCell id="QlektbFsVMy9iI1Y13lA-32" value="Name" style="text;align=left;verticalAlign=top;spacingLeft=4;spacingRight=4;overflow=hidden;rotatable=0;points=[[0,0.5],[1,0.5]];portConstraint=eastwest;" parent="QlektbFsVMy9iI1Y13lA-31" vertex="1">
          <mxGeometry y="26" width="160" height="26" as="geometry" />
        </mxCell>
        <mxCell id="QlektbFsVMy9iI1Y13lA-34" value="" style="line;html=1;strokeWidth=1;align=left;verticalAlign=middle;spacingTop=-1;spacingLeft=3;spacingRight=3;rotatable=0;labelPosition=right;points=[];portConstraint=eastwest;" parent="QlektbFsVMy9iI1Y13lA-31" vertex="1">
          <mxGeometry y="52" width="160" height="8" as="geometry" />
        </mxCell>
        <mxCell id="QlektbFsVMy9iI1Y13lA-40" value="Secret" style="text;align=left;verticalAlign=top;spacingLeft=4;spacingRight=4;overflow=hidden;rotatable=0;points=[[0,0.5],[1,0.5]];portConstraint=eastwest;" parent="QlektbFsVMy9iI1Y13lA-31" vertex="1">
          <mxGeometry y="60" width="160" height="26" as="geometry" />
        </mxCell>
        <mxCell id="QlektbFsVMy9iI1Y13lA-41" value="serial number ..." style="text;align=left;verticalAlign=top;spacingLeft=4;spacingRight=4;overflow=hidden;rotatable=0;points=[[0,0.5],[1,0.5]];portConstraint=eastwest;" parent="QlektbFsVMy9iI1Y13lA-31" vertex="1">
          <mxGeometry y="86" width="160" height="26" as="geometry" />
        </mxCell>
        <mxCell id="QlektbFsVMy9iI1Y13lA-35" value="" style="endArrow=none;html=1;rounded=0;exitX=1;exitY=0.25;exitDx=0;exitDy=0;entryX=0.015;entryY=0.026;entryDx=0;entryDy=0;entryPerimeter=0;" parent="WIyWlLk6GJQsqaUBKTNV-1" source="QlektbFsVMy9iI1Y13lA-23" target="QlektbFsVMy9iI1Y13lA-32" edge="1">
          <mxGeometry width="50" height="50" relative="1" as="geometry">
            <mxPoint x="460" y="462" as="sourcePoint" />
            <mxPoint x="510" y="412" as="targetPoint" />
          </mxGeometry>
        </mxCell>
        <mxCell id="QlektbFsVMy9iI1Y13lA-36" value="1:M" style="text;html=1;align=center;verticalAlign=middle;resizable=0;points=[];autosize=1;strokeColor=none;fillColor=none;" parent="WIyWlLk6GJQsqaUBKTNV-1" vertex="1">
          <mxGeometry x="570" y="450" width="40" height="30" as="geometry" />
        </mxCell>
        <mxCell id="QlektbFsVMy9iI1Y13lA-38" value="1&lt;br&gt;:&lt;br&gt;M" style="text;html=1;align=center;verticalAlign=middle;resizable=0;points=[];autosize=1;strokeColor=none;fillColor=none;" parent="WIyWlLk6GJQsqaUBKTNV-1" vertex="1">
          <mxGeometry x="710" y="393" width="30" height="60" as="geometry" />
        </mxCell>
        <mxCell id="QlektbFsVMy9iI1Y13lA-48" style="edgeStyle=orthogonalEdgeStyle;rounded=0;orthogonalLoop=1;jettySize=auto;html=1;exitX=0.5;exitY=0;exitDx=0;exitDy=0;entryX=0;entryY=0.5;entryDx=0;entryDy=0;" parent="WIyWlLk6GJQsqaUBKTNV-1" source="QlektbFsVMy9iI1Y13lA-44" target="zkfFHV4jXpPFQw0GAbJ--1" edge="1">
          <mxGeometry relative="1" as="geometry" />
        </mxCell>
        <mxCell id="QlektbFsVMy9iI1Y13lA-44" value="Permission" style="swimlane;fontStyle=2;align=center;verticalAlign=top;childLayout=stackLayout;horizontal=1;startSize=26;horizontalStack=0;resizeParent=1;resizeLast=0;collapsible=1;marginBottom=0;rounded=0;shadow=0;strokeWidth=1;" parent="WIyWlLk6GJQsqaUBKTNV-1" vertex="1">
          <mxGeometry x="80" y="240" width="160" height="170" as="geometry">
            <mxRectangle x="230" y="140" width="160" height="26" as="alternateBounds" />
          </mxGeometry>
        </mxCell>
        <mxCell id="QlektbFsVMy9iI1Y13lA-45" value="permision id" style="text;align=left;verticalAlign=top;spacingLeft=4;spacingRight=4;overflow=hidden;rotatable=0;points=[[0,0.5],[1,0.5]];portConstraint=eastwest;" parent="QlektbFsVMy9iI1Y13lA-44" vertex="1">
          <mxGeometry y="26" width="160" height="26" as="geometry" />
        </mxCell>
        <mxCell id="QlektbFsVMy9iI1Y13lA-46" value="" style="line;html=1;strokeWidth=1;align=left;verticalAlign=middle;spacingTop=-1;spacingLeft=3;spacingRight=3;rotatable=0;labelPosition=right;points=[];portConstraint=eastwest;" parent="QlektbFsVMy9iI1Y13lA-44" vertex="1">
          <mxGeometry y="52" width="160" height="8" as="geometry" />
        </mxCell>
        <mxCell id="QlektbFsVMy9iI1Y13lA-55" value="Permission Type" style="text;align=left;verticalAlign=top;spacingLeft=4;spacingRight=4;overflow=hidden;rotatable=0;points=[[0,0.5],[1,0.5]];portConstraint=eastwest;" parent="QlektbFsVMy9iI1Y13lA-44" vertex="1">
          <mxGeometry y="60" width="160" height="26" as="geometry" />
        </mxCell>
        <mxCell id="QlektbFsVMy9iI1Y13lA-58" value="User Id" style="text;align=left;verticalAlign=top;spacingLeft=4;spacingRight=4;overflow=hidden;rotatable=0;points=[[0,0.5],[1,0.5]];portConstraint=eastwest;" parent="QlektbFsVMy9iI1Y13lA-44" vertex="1">
          <mxGeometry y="86" width="160" height="26" as="geometry" />
        </mxCell>
        <mxCell id="QlektbFsVMy9iI1Y13lA-59" value="" style="line;html=1;strokeWidth=1;align=left;verticalAlign=middle;spacingTop=-1;spacingLeft=3;spacingRight=3;rotatable=0;labelPosition=right;points=[];portConstraint=eastwest;" parent="QlektbFsVMy9iI1Y13lA-44" vertex="1">
          <mxGeometry y="112" width="160" height="8" as="geometry" />
        </mxCell>
        <mxCell id="QlektbFsVMy9iI1Y13lA-57" value="Unique Together&#xa; (userId , Permission Type)&#xa;" style="text;align=left;verticalAlign=top;spacingLeft=4;spacingRight=4;overflow=hidden;rotatable=0;points=[[0,0.5],[1,0.5]];portConstraint=eastwest;" parent="QlektbFsVMy9iI1Y13lA-44" vertex="1">
          <mxGeometry y="120" width="160" height="40" as="geometry" />
        </mxCell>
        <mxCell id="QlektbFsVMy9iI1Y13lA-49" value="1&lt;br&gt;:&lt;br&gt;M" style="text;html=1;align=center;verticalAlign=middle;resizable=0;points=[];autosize=1;strokeColor=none;fillColor=none;" parent="WIyWlLk6GJQsqaUBKTNV-1" vertex="1">
          <mxGeometry x="110" y="195" width="30" height="60" as="geometry" />
        </mxCell>
        <mxCell id="QlektbFsVMy9iI1Y13lA-52" value="" style="endArrow=none;html=1;rounded=0;entryX=0.992;entryY=0.174;entryDx=0;entryDy=0;entryPerimeter=0;exitX=-0.008;exitY=0.185;exitDx=0;exitDy=0;exitPerimeter=0;" parent="WIyWlLk6GJQsqaUBKTNV-1" source="QlektbFsVMy9iI1Y13lA-44" target="QlektbFsVMy9iI1Y13lA-27" edge="1">
          <mxGeometry width="50" height="50" relative="1" as="geometry">
            <mxPoint x="400" y="390" as="sourcePoint" />
            <mxPoint x="450" y="340" as="targetPoint" />
          </mxGeometry>
        </mxCell>
        <mxCell id="QlektbFsVMy9iI1Y13lA-53" value="1 : M" style="text;html=1;align=center;verticalAlign=middle;resizable=0;points=[];autosize=1;strokeColor=none;fillColor=none;" parent="WIyWlLk6GJQsqaUBKTNV-1" vertex="1">
          <mxGeometry x="20" y="240" width="50" height="30" as="geometry" />
        </mxCell>
        <mxCell id="QlektbFsVMy9iI1Y13lA-60" value="Permission - House" style="swimlane;fontStyle=2;align=center;verticalAlign=top;childLayout=stackLayout;horizontal=1;startSize=26;horizontalStack=0;resizeParent=1;resizeLast=0;collapsible=1;marginBottom=0;rounded=0;shadow=0;strokeWidth=1;" parent="WIyWlLk6GJQsqaUBKTNV-1" vertex="1">
          <mxGeometry x="80" y="450" width="160" height="60" as="geometry">
            <mxRectangle x="230" y="140" width="160" height="26" as="alternateBounds" />
          </mxGeometry>
        </mxCell>
        <mxCell id="QlektbFsVMy9iI1Y13lA-62" value="" style="line;html=1;strokeWidth=1;align=left;verticalAlign=middle;spacingTop=-1;spacingLeft=3;spacingRight=3;rotatable=0;labelPosition=right;points=[];portConstraint=eastwest;" parent="QlektbFsVMy9iI1Y13lA-60" vertex="1">
          <mxGeometry y="26" width="160" height="8" as="geometry" />
        </mxCell>
        <mxCell id="QlektbFsVMy9iI1Y13lA-68" value="Id" style="text;align=left;verticalAlign=top;spacingLeft=4;spacingRight=4;overflow=hidden;rotatable=0;points=[[0,0.5],[1,0.5]];portConstraint=eastwest;" parent="QlektbFsVMy9iI1Y13lA-60" vertex="1">
          <mxGeometry y="34" width="160" height="26" as="geometry" />
        </mxCell>
        <mxCell id="QlektbFsVMy9iI1Y13lA-66" style="edgeStyle=orthogonalEdgeStyle;rounded=0;orthogonalLoop=1;jettySize=auto;html=1;exitX=0;exitY=0.5;exitDx=0;exitDy=0;entryX=0;entryY=0.5;entryDx=0;entryDy=0;" parent="WIyWlLk6GJQsqaUBKTNV-1" target="QlektbFsVMy9iI1Y13lA-45" edge="1">
          <mxGeometry relative="1" as="geometry">
            <mxPoint x="80" y="489" as="sourcePoint" />
            <Array as="points">
              <mxPoint x="60" y="489" />
              <mxPoint x="60" y="279" />
            </Array>
          </mxGeometry>
        </mxCell>
        <mxCell id="QlektbFsVMy9iI1Y13lA-69" style="edgeStyle=orthogonalEdgeStyle;rounded=0;orthogonalLoop=1;jettySize=auto;html=1;exitX=1;exitY=0.5;exitDx=0;exitDy=0;entryX=0.005;entryY=0.097;entryDx=0;entryDy=0;entryPerimeter=0;" parent="WIyWlLk6GJQsqaUBKTNV-1" source="QlektbFsVMy9iI1Y13lA-68" target="QlektbFsVMy9iI1Y13lA-1" edge="1">
          <mxGeometry relative="1" as="geometry" />
        </mxCell>
        <mxCell id="QlektbFsVMy9iI1Y13lA-70" value="1&lt;br&gt;:&lt;br&gt;M" style="text;html=1;align=center;verticalAlign=middle;resizable=0;points=[];autosize=1;strokeColor=none;fillColor=none;" parent="WIyWlLk6GJQsqaUBKTNV-1" vertex="1">
          <mxGeometry x="25" y="383" width="30" height="60" as="geometry" />
        </mxCell>
        <mxCell id="QlektbFsVMy9iI1Y13lA-71" value="1&lt;br&gt;:&lt;br&gt;M" style="text;html=1;align=center;verticalAlign=middle;resizable=0;points=[];autosize=1;strokeColor=none;fillColor=none;" parent="WIyWlLk6GJQsqaUBKTNV-1" vertex="1">
          <mxGeometry x="290" y="370" width="30" height="60" as="geometry" />
        </mxCell>
        <mxCell id="0sAgCjUpDcDhd4yGh7yJ-16" value="" style="edgeStyle=orthogonalEdgeStyle;rounded=0;orthogonalLoop=1;jettySize=auto;html=1;" edge="1" parent="WIyWlLk6GJQsqaUBKTNV-1" source="QlektbFsVMy9iI1Y13lA-72" target="0sAgCjUpDcDhd4yGh7yJ-15">
          <mxGeometry relative="1" as="geometry" />
        </mxCell>
        <mxCell id="QlektbFsVMy9iI1Y13lA-72" value="Create House" style="rounded=0;whiteSpace=wrap;html=1;" parent="WIyWlLk6GJQsqaUBKTNV-1" vertex="1">
          <mxGeometry x="1020" y="145" width="120" height="60" as="geometry" />
        </mxCell>
        <mxCell id="QlektbFsVMy9iI1Y13lA-81" value="" style="edgeStyle=orthogonalEdgeStyle;rounded=0;orthogonalLoop=1;jettySize=auto;html=1;" parent="WIyWlLk6GJQsqaUBKTNV-1" source="QlektbFsVMy9iI1Y13lA-79" target="QlektbFsVMy9iI1Y13lA-80" edge="1">
          <mxGeometry relative="1" as="geometry" />
        </mxCell>
        <mxCell id="QlektbFsVMy9iI1Y13lA-79" value="Pick Room" style="rounded=0;whiteSpace=wrap;html=1;" parent="WIyWlLk6GJQsqaUBKTNV-1" vertex="1">
          <mxGeometry x="1020" y="360" width="120" height="60" as="geometry" />
        </mxCell>
        <mxCell id="QlektbFsVMy9iI1Y13lA-80" value="Grant Room Permisson to House member" style="rounded=0;whiteSpace=wrap;html=1;" parent="WIyWlLk6GJQsqaUBKTNV-1" vertex="1">
          <mxGeometry x="1220" y="360" width="120" height="60" as="geometry" />
        </mxCell>
        <mxCell id="B_AO4n_m2kOsappboFbx-0" value="&lt;span data-metadata=&quot;&lt;!--(figmeta)eyJmaWxlS2V5IjoiODVQVlk4Zkc2YzIxODFEaTJ5c0ZjSSIsInBhc3RlSUQiOjMzMDQ4OTYyNCwiZGF0YVR5cGUiOiJzY2VuZSJ9Cg==(/figmeta)--&gt;&quot;&gt;&lt;/span&gt;&lt;span data-buffer=&quot;&lt;!--(figma)ZmlnLWtpd2kwAAAAlkUAALWde5hkSVXgI+7NrEdXP+b9YmZ4gyLivBgeIpKVeasqu/M1eTOrZ0adJKvyVlfSWZll3qyeLtZ1EREREV+IiIjIIiK6iKiIqIiIiIiIiIiIiIgsy7Ksy7Iuy7Lu/k5E3EdW97D7z873TceJEydORJw4ceLEichbv+fVozjun4s6h/uRUtedblYbvbBTancU/zWalaBX3ig11oOQrO6GQTuX9wx10KgA+2F1vVGqARXCzn21AKBogF4YCK8FQ2s498Iz1VavHdSaJam52Gh2qmv39cKNZrdW6XVb6+1SReovObBXaTYkv5zk28FaOwg3QB0Ly0Ej6IFubfTu6Qbt+0Cu5JHtoFUT5PFKdW2N9ES5Vg0and5qm9bLpVD6djLXt9PNbptxBNKzU2GnHZTqtoT8FS5vR3xltdEJ2qVyp7rJIGtVOmZFQ9lV7aDcbDSCMoPNdSbp4dWXL076eo3pD630qo1yO6jT31KNUlcHimtLF4cxE3AvsJIqurS9zUSCooeVXrNhGCmTOduudqRTujEZRK3dfhxBBt9Sx4wSonpz04D67HA8GI7PtQ9GQtNoNu4P2k0KVLNiyoWD1ZTHUxiAUpVmuSs9BNTlUmOzFAJ56+1mtwXgr7VLdaErrDabtaDU6DVbCK1TbTZAFjcZTrMNtCAyJl2sVQ3bpaBWq7ZCAZcZeAe5Gp061g7Wu7VSu9dq1u5bN0xWaKpRCSoioJTueCe4V7p0gokpC+JkeF99tSn6earaoLGGwTKj1fIZEdWV4UapFfTOVjsbPVf3Kidv08Gry7IWVmvN8hly15ytVtaNXl8Lr7qM9Lp6UKmWAK7fqK5v1Phfim8IYWAHe6MDewi7XStJozedLYUb1V6Hlsk9bLPUrpZWTf9v7jjgFgP0ysiD3K0JiVtVD2d4Zq08ohSG1ZAJ7cG52ZWyR16qn0HNKBOFj0oZSW/aFIJ8dL1Z6ZpWH2Pp1ykg91ibazfPknlcuNvfj84OZ7ud6OLMKsOt4T3dUjugVNFPN28acdSbZql4HRqTmWF1k/XTbKV5VkRTuNwUFluldqlWw0ywOuq9tpPowjy6FqwJdjForPcqJYRVMo0vSZ7l1pXMsmTWqobrMQM3a5VAZnWlw8IL7m+aYR5vtYNKsIYCVnqtdrMchKLKJ5ihoCblJxNV74VV18dTKarerXWqLYO8ol5qdFmw1UbLTMSVG8G9JaurV5U3gs22Aa9uUc2hr2kybAuKPknPrmvVutL89aU2ck+GeYPNJbK4MezW6/Sld7rbYJ4Ng5uMuj4sbAVBeaO32l1lkkHcbLQBy4Y1a7ZLxkrdsjqKxoM6a1q6gwb1OhvMxLpYVmx/u27sua6U2mcCYe25QYrq+rJQWYermEuyhXKz1kxzRaP+ps5CiKUxkFna1Kg0WTrkl2yVJLssiojyAh4Lm2udnuFBbmWj1EatXc7Y8aAd2PV7Iri3jJzsyE9umNk+FZY63dTEXGFaAbiy1kVUzbDakSauavWHY6e9S2ET/Qap0KhKlWmhNekqGJ2iJDXywLYBCgpNFVsEzk9xEDmlL1TrVsxF7OvpKsDCJstIzOlidY8tN9zujyIrffbMdtApG8GvVWWcGn01rXWs3vrBzk607XpcqGKY2uyYJRYQharSbrayrF5rYiaZSXaQ1VpXOuitlspn5lG+rN+y2Q0WmmhUFeUArbotLDSprjXPGoAudGwfQjSi1iuXWqKZhSzHgmqXzQ5SFKaVaHsy7c+GkzF1kn2Clplf5AqsGW71TJBpm1eL+rLxdKbDPXJJHXj3NgI387pxsLcVTbvj4SyGb7skQ1Wt6r1BLQTQ9Jq9VCi98mQcz6bZDC8y8+CVlJsh6XpJtk6Pfjix+2GZXR+gsAbHSs/WKLqMoV4IZ9PJ+ag0Gp4bUyFlpthQmFgAjeV1oGeJy/19NDIZD8M1qqFTe+nZBS1ykUH4Nhvc063W2J4xdCALTqfEhFnHpIj4UD4MaIpayO86i9m+0rud/FIufwf55Vz+TvLHcvm7yK/k8k8mfzyXv5v8iXK1Xc63ftKO9vRkKJKp42+0warVYDOQEehk4N7qZDKK+uPmfpQoSKHbsCsVMVJNNklgHXZXsc0G9u41C9joqxH+xmQ6fO5kPOuPqO4sY25u0WUjBe90l+19rWp6mNXejKazIUtPcM0WRbmqq81Op1kH8uqTgzgqH0zjyRT5sC2UsH0UqHK7GbLSqm1gHdwXyNJD9ch5eH+mqVaJoWALy6g4+QKWnqRIUq7WgBbqYlGlyiJTjE8NtJTOn8kub7LYJ9P6cDqVDqSryMw6qTYAFgjLyI7WERX2Kv1419oTr8wuDEplCq6NzbHrodBqrINSp1uBpDrclMRrVcRD9oOL+5Pp7Oga8vGGMOlsfm6hqASBL2Ta1wkiXbJerX84OZitT4cDy6Rgl1VO4lkHPbvK/KxOqz+bRdMxRVBVW2aFYKONrdZmPg9mk3YUD58L61REpjtGMmk/dAp5Uq0zPRhvO/XzKtVQ/CDhqXC52U0BdDg7HEVh5MbO1LXDprOPHY4AJLqMdlld4TSCq9Eoy8bid4J6iw3W+PmFhA3CnEWpJC/ZbwB1sltgOPrb5+00pmPawEDfj3RNDzQbJW6rgS210Wuau0S6VqTeKkomJgbYNxXKkwM6NHX1Fh6qHmJ3k+OXuh3ZuQo5VkXD6vRBPBvuHJJ9SC6tUhnfczOwhxLf5leDzlnrGCAl+IR2Fo3BBcmpJKzeH/Q6TayMEdAcAqVjkqv1Fu49OSmBxkqjNYmHMrnsJ6Bcx1VpFbF37UHIkJ2dim1mr+GAVGqBVi61xXkRuemDOuF2dAwakjFLlmbtJC8nU4cpsH6XHKbJ627bTNwqGzKpX641jcdawKPvJV45+WK3hT8b9MyxotfuNjpVc5BaYJVVquLdGAVYzFfr4cALzVKV/k77ue5cwbkDm2CaVKU1utQTfuxX5HW9yckefxXYs7At8Km1IX4ZcMEW4GEIWdHmjDu/ABWus/GWF92wlyr4mKTLlJ0J7kuqHSO72bQnshVgO7gNM8HH0zzLkPwJ20SiTSdtljPkptQ+1Zn2x3ae7QhvYhfm7NDpsW2wH4uAIFMsb+bdVNFrBA9IPXucWWs30+ODn0Ml20chh7MbRTGHSXeKhVY33LA4x2wxwyS8ljKUZbWcIVJOx+QYbnGO00qGSTgdz1CWE2JKECmnk7ajTCJECbNTc8iE3xVzWMvyyjlcyvUq05LDOqZX53EJz2vySMvy2jwq5XgdNq9aRmvN/FyPQ0kEptTAFJp1egNnhyYuZoa5MejHLGs74ycJkpS7q9UyBUpYJxldbeSzntgr66ZTQ9ZdWlQQujlM0dadwy1YU5/mF8NW2+4TS+uoJ+suRSw70hRxzEJmgbBS7epYmUd2zopNOX4EucG5CfSJcHs6GY0qw6k1L3TarbGvsSsgYWO1bV1s00ysQTTAss0iyoN7W2yQ1tCW4SCelsnp9S5bk/Zigkk0Bryo9GiCu2RArzwZ4Y/owlQtK32Of7wt/vH7/FOwLguVL5LTh/zjtUFBnSEe5B9/l38KhlM4m+xTYVtg9Wyl953phsCr92fT4UWlF/Zuu4283rvtdhJv77Y7SPy92wVZ2LtdkMW92wW50OpPMdPV8SCinnfuYDhQD+SYrijPniEovNAfHUTU0QfmPHGz8taQUqO/Fynt7/T3hqND6HUsGziAB5NZvD0d7s/I+UK72Z8O+1Q52Iumw+214bmDKaJly3bnZoXaMZ8AmnCDiYUCm2bmq4b7/W2Ueq4u8Qe8CDFiJq8JbLij5mUYrMnkygDzHDCkRBQMjJOFOpv5zdcu9/djlDmrwvozZ05N0ksyXivg/Cdd90H00pz47cRPBSyCYrDrgAs5/q1E7vlu4dfzL+49LhWA6U9ohMzkpFRVdNosNR1Ge7Aabp+Nhud2Z3NEhPNkSClJlQPBcHuOJOPDicNsFGtRf2Ym6h91i+MlRap8R8uQuNF45VYoeF9GRWoGSlp0sdAFoj/iJy8225UG6VJprS3ly5WGMWrHGt26DG0Fb17igcfZd0U0Jyo2PSluPukpTsOSXlEqmZPFlWWbXsXRStKrQ5u/pr1pgirXygInvS48a2Lf15fDs5LewCQL/sZy2QQibwqty/awDQKCpDc75+iWZrsh/btVhEL6cPZJkd8jKh1zgH7kWq0k43hUfb0tbsKjQ3SW9DEcVaT9x67hWZM+bsOmj9+w7X5dx+a//h6bPqFl02+Q4xfpE2trq5L/xmbLpE9qd0z6TS1b/7bWmYbI6fYaZoj0DlLp553tTk3yd5FK/sml1fYm6d2l1U3JP4VU+v3UTcvnaZt0iPTpq7WzMj/fTCp0zyAVum8pndmQcTyzfNocK7+1vGYW1LPKLZMvlbttoVvFZZB8GSMpaWXN8g+IDEp/1kjvIF0nvZN0g2alvSqp8D+9YcdDa+vSn9pG87ToDe6x8XMaVRwS0ubp1lOeSto63Xqq8LnndOtpt5G2T7duu4s0rJ2uS70OMWeh77I7yrxsipNEepZU+nFv/Uxd8Pc1asa9u7/RPdMh/TY2EunXt5OGpN+xicBJH2iFHcH3SAX/7PaZtuT77daGpFvt7qrM+3aId0066Nh+RJ2GOfjsME0yf+c2ibOR7m7a8uGmHfdzNs8YfTm/2e60SUekd5DuhSEWXKkxqeQnpHeS7pPeRfqdpE8mnZLeTRqTPoV0RipyOiB9GumFMMT2K/UgqfC7SCr8DkmF33NJhd+/IhV+30Uq/P41qfD7blLh929Ihd/zdBjeIQy/R5c3TQ+fL4Cw/F4BhOcLBBCm3yeAcH2hAML2+wUQvi8SQBj/gADC+cUApqs/KIBwfokAwvmHBBDOLxVAOP+wAML5RwQQzj8qgHD+MQGE848LIJxfBmD6/BMCCOeXCyCcf1IA4fwKAYTzTwkgnF8pgHD+aQGE86sEEM4/I4BwfjXAncL5ZwUQzq8RQDj/nADC+bUCCOd/K4Bwfp0AwvnnBRDOrxdAOP+CAML5DQB3CedfFEA4v1EA4fxLAgjnXxZAOP87AYTzmwQQzr8igHB+swDC+VcFEM5vAXiycP41AYTzrwsgnH9DAOH8VgGE828KIJzfJoBw/i0BhPPbBRDOvy2AcP4dgLuF8+8KIJzfIYBw/j0BhPM7BRDOvy+AcH6XAML5DwQQzu8WQDj/oQDC+T0ATxHOfySAcH6vAML5jwUQzu8TQDj/iQDC+f0CCOc/FUA4f0AA4fxnAgjnDwI8VTj/uQDC+UMCCOe/EEA4f1gA4fyXAgjnjwggnP9KAOH8UQGE818LIJw/BmBM1N8IIJw/LoBw/lsBhPMnBBDOfyeAcP6kAML57wUQzp8SQDj/gwDC+dP6aNAJF23Gdq3uUjpx1TzxTev9/X1xlrS3M53siXs3m/CvtzqabCmttw5nUax8baNdyvO57tyV/Fg8O/y4QX/WN7SLyt8cDqKJ8ryEJr6zOx0JUasfz6JwcjDdhoUXT/HucFDEHZxuNyQyQ4OgOGOXxXMtDZ5DEETppZl0HJ8y3u0PJg/GgN4ubgshhF18TLzWQTTrD0dAhYjxxuKI4L1eIMQQEeoCXphFeyY2aosWLwy3OOfSjWXOkCIX26y7tFfesf+/TW7jnU0RBvDy1lR4jmmZ3DHTGeVdZybpCqW3RRDq2cqbiDc7E2ffvzCMh1sITqsCibtpOqmKMV5/rHb0ArzH8c5kuqd21eLQzNiLtFoyUGcXV30sXQe13B+D5ABTlSLBXGExuJd4v0ztorqSfP5S5Sp1zGJ2JwejQVn6V++PQdCf66YTTkJUppsrsVQBOL5jZGso3ZS+VKsT+zLSNVOEbVYno73Jc4ZlWmgR7UbGi/rUBaNIL9bqKiLT54ZjTkvS8tnhYMbA1NVz2A3ryS6qa7alJZxl9YaCulYc4TpzVUFBlVc8Hx2qsdI7YGvDcVKJ2RVMZXguonc+JxVy1n1+ripIxvnJRa4uyMF8aMfp+f2Lw7jTP0fDWsCGSA1dT1aXCZDbxq/e3u3LkSKaxlDoNGcaqlZkyF4scPNCNCVOG3X6zK96u6f9kQnemljeFrPO7dKI3sdsIrp4bnS4vxuze+iFQXpDFLN36MUtjpjnv/NgIov39VpfYdls0gFI6PHSDoNJpfMyrZd3+qPRFmG6NQpiNdbHdlHEKY2dX51chMurtF4hB/QaXx+fpRFfTsBTd0IsqhMOHw1S+Z4cTc7J7YAh6UzKydibOztxNMP6qGV9am+YhATTelfukYO/bf3VWl814Gh2IRrUTCde6+urKxaRyfm4HaaTlp6TlpdJiyU8Jy0W05y0ijv0JS+chUtlsehGCo85CSw5fE4Cy/8PEjh2dLQrAzu4muk/oz2+keuD8gpbhFMHsRpw4LY21p3O/d2EjkNDkShjyphFkFWKs04ThcCWJLA/jDc59kFCMMDWPcPSWVTFVSdO5S1h9+xJFCk/aBYlC0nK7gPwBUhHX5BcKd6GFblFzORkGtVyt5NYxZ3hNJ6lcpG26FA+v7Auk6e8xe3J3l6fIazaHScLRWwpu4IYNGOQCTRaQPuXMu8PLjh7vHCp7VmspMrBVjUl3oK8NPJKmMvO6LQFI3DBXX6tYnWQmUHX+1MmyUk63y0b0DFaJTUl04hmD04gd+NBOHtI/7lElvgnHdWldkG2bq5zkImWiY/VA1qHh3tbk5FjH5sM7bKjWzhhEgsDjzCNbBQhfY/WEA2bDVOXsEUrjVfgeWgCHPbB4V4SCkBW69FYtjck5Nqa5DnrgzhaY87Xxe1gHIdjE4zRuArDnZ3meHTYRuoX+iND7Vesnlf39g5mMjqz+1i+3jxfMs56eaWYlVMd0EvGj2ZNh9C8VWvtCgJQhzDoS1bUF6tr4OoAp9TVb0c7kJy3pQlzFpIphNBbFMnK6PuCEfK3UZeVM2Nwk4P96gB/VvlmhoDfwYqxkibzTo1PIJsFQyL7Lq0WkmxouL9HE/bMs/KSFTzfXOi4P1Rx0uBDlG+6RlGE/wtFExGIsKuD/xtlyAAqD0WEq3BAc4OHKu/sRntfozchpgdXBRqnAzOBoX+fnpukjK41FefHW5hJZjOlwMvNemvE7c3YKJw4Y2ZLY+o6oMriNdT74wN2wMMwGrEuI5ayKgzj1cl04ByYyxAU44MtCWFusQdJ424MC1nf5hX0QyjoXFlAgajpTPJ0UsZoYDumD9DnEMMli0hmGf4R8Vgsl7e8gwN9xqpubAoREU70BTv+jT4OOGFVEXGrny7nmNMfu51z6YujIY7p9FDWfGcSurFAJghO6HoBa7s/GUdjt4QWD8Y7I7lClpvAPMulYdxNioxklm23y0n9eh//PzF82wnWctX7B1ujYbwLM2lYutuZdKL+Xi3rnjTiHW3Er3K2EUOeaG44k2Fn5khYNXfCB+kpBsYRixXDuZ7rwryhuTzfzTv+nzizN/RHYW5GkiqWtX10pLwTxs2/RnqCbhk333gDWHx/yt54IGeCQubvF0lSf38h3p9G/QEUi/Hu5EFkzUllNUKCAzHPkC9ZHptsSrjCy6YRlzlmK7vcykUHHD90wImOnCHMplod78hpznR1U+nBgTX6tOuhoLOJFFSiC8Pt5BVEco8iATLzUkOXCVmaIK5ncFytSAiePHZfKraTYwM7i6tcLp/tmUOxPtIITo9k1CcRc+x2R8aC1KoDpnK4M2R7R+mpZXl+ijXcRPx4hS3nJ3SEgVpKr9QVt2nJ1ZsWOC3xJJdcwPnc/zCOhLLgsilx0SES+gX7YhFo0XVgFdf6HJZeHC2WAhsuvaGVdNRya81tlr1Ulos99+5JX8LAjiGtSfCzWuklr/IuJS+hozg/oqCet5WiDZfPIcoMVRY1EV1s9DnOGhkaKlVslDaJvZtrCsXdYts+K9ThWRPw9yTtcSdiCHx3yWju9QsBZ2QJQ8CZ6RSrBUXyyBMCFbbXzQUGQeIWbHutO3ubd4HwbM2QQzWWAQN/LD7Y2eH+CosxlGOf6RqLchsvfia+xow4o/LjC+fEzpjTGPNPtlox6+ZLrCJyzYOZeKRi+CnHxDEdeH7il5BfhGJtQpgiNO+vsFvnY9BL+DSlrXgyOphFzrPDyG3nR/VPWh1zXd5cd00qr7rWawSBuxgs1c6W7gsBdM2cU+RJTmIK7mYf5BCpPGx4uur98cFeiL1gImKFL+9sBOGG2GJDWQa4secOsIpTl8NJpl/M49K+GMvpWD1VLec4uYV+zHJzuZXYlgoPhzqecXWYE+vsJ6iROfrSVW1Z0GaymfstLCMED2KLmDbz7n1JYeXm3HZ8KNmFjU8cCtgREcjNmVVpeQZHwjVbu3lGMJ57Qe4Ha2v2PVuBy4RmW6Cie8C0gB1kzzH8cjulbcva+cSBcNtjsrkKATPNWEVz6H0sGFclZkYT60Hek8m2Re4yGMPLckHgIIzmywwzhHuDSu/sRsCK3qjWKr3mWs8Wc6/XSx7xM0JW+32uRCp6pel22guOaAixND6HFAlJsQPkst5wjBveNoaerG83nRoHP+oeTIf0UA+G8f6of2gWw4o44CZrdJ/+t0YHRFFca/smgySphnNOCIMK5+1AW6asHY36nG13bYXCvkHaCnuRDZ9RxU01IO5VBWfJ+kqF+sFoNpTWo+naMBoNNu1UMEHbLChkjzLo/C05V+MMUA4m9b7E1pRaSvTDPRoSg03iOavsWyMMVEjscDG10AtSpzd3wb+YNhCMB/ty/kMMkQNlI6UbuKf7yeRvcVdue/JST/lpZQBsxagltRhNjtyuaKpBYmlF8iGQlOMqVyuVmnmAhe00usydVoKyb3aSZ1C2an1oO0czMUjh8jIvvwpTatQAE4YWI5agtto8ay0QC6rkRMPW3LY/Uslq2WXopZuXufNGVYF0aTx2+yoWjwjD7NBS3+AWq/C2i1VzXWleS3jpK0Gfu7pegi5IJi0q1kv3pkXsm/dmRYuWZVq6VObGNWj3uC6rdmWxLKfm4JgYCMRo3wSsmBw31es0lJ/y42tAvbVSvWpezp0wWXede9JkziaNn2KhBllfrqgFHTSpJ+/UWMFgrmTS2KkzxFUW0SpV3KPHqy3CvSG7xuZMr9zmd21TKptL4evKzXoL9Tb46y8VtvL0TOT9KuY7K0URRv2tSOI/et9SykHj1ZzvM6J61JcotQRzRKtDMeGqYNeOSteMdqvIS9aOf1kOBH+ModdyWyDsgL3ZxEF+gjWNvNZThdkk7O/ZLPuvMVlNo65iTWac/FHbBfbCBL02vIi9YBOzPEMTEzCbyhvZht2RoD65EDnndDIanDFGihAFFnwttc5ejnZjSIR8elglME+V2NxDCPeqGYnNl48cCfA5o5FI1HTUBOLOY/XGthrt7WRNjShzNlaCX+e7JiJXODscnIvYPFixmDeP4I6pS5PBYEjwTQZQmA0xnrP+3n41njz1bq5LYY23MYVQODMoIY4GJYlw+9v47kmmIAXJovUrgfxgkHlTZzeqnWC1WWrL4tbm6ZksFo8t7rwjLtVaG3K1LK+8RM+BtPk5h/sZlzvFO+oGeglShag1xil5d2l+vJLkvBALgqqEaAz7ET6kq7TaZfcj1XMEdvA6Nhn1VpS6gXCI0o3ZRbyXmIOrCEpSG2N/8v5uP47UgvIMYJF377OBJw+UnqP8XNYSPGUmQziGHpJa1FPHdqaKklrU04Zxyx5CRdtQ1DdpDmychvelx9C+wxtl2mT6/npPPS+PdCqm3uDpn3Lb5u8ZX6Ek0Q0JOPy6Vv/bOiPsK4vqdgfaHkTDOJzszNx+GUoR3Xiz5lphMu7uD5h017VfBbc2HI0Smp8hb53VBPNzYJoX7KlTUtk5krIv2x50kIb6qua+2WQrc4P9vcRNAv4ljUwu4yM9z+NqOVeUOVz/orlrPuI0vdObPIdDZXjAckINppExRMYNEE5/zW52oT6ZjEdD7mZGh0kLH8fF2SU8iFFw40VyDxAdd+jcsE3Ba5OCdMQG/QsJ2rnnacEb0gJzKs8KfjEpEA89Q78xQef6w2HBdoPy39KxQQ5ACgkxJvV+K3CDs4RJyZ/mSqTDgvtADmc7Jdg/y2GlR4L7YO4o1+pjYWL1Y1r/vr5sD1dTUnr5LtQjZN3ZwCM68fd0O8m27CZCMAAPsCnBr1i90tdfSOba+JjZZH9Yq+fCzWDnV9C/Akor5GNF35Uv2IS/VZHvtujUCud07SNavcIFueYV9Uf0QRIQgnu+kddxz4dN7z5E8aeTmBNiElPwERRW9oCaXc9nzPL9Qd8Rmbn/KznD2K7Z4o8ixvIdjPSvE2ZR6tOucLNvryjL85W+mnERSVeinVh91dMvxgfOoZFvrP7Z0z/ouVGLFH5Zq+/MstZqyPywhTphCl6CTP+aGyOMSBKWakcxJ7hgLBMjnviLkygWQRNb0Qzwh+e7htniqkZ2/Fh9xdMvIdJCSLI0jVYPthyjX01jW6EEyJCI/rKeQxEz+5jWXzFWPNnDJ0nGDmE/qVCT/VYV1e97e9ne8+ue+hdzQRsyBLyCaxPYVq5i7/vnpv39XTH5OCfL6rojKEt4OsUmb0OX1fVHcZb0zIy1WOK6P/+rqK9Tj7gM2lbopCWbrBy5C1JPUI+8BGmJu4Ivs3+p69SjEtgWbUo2d/l0g3r0PMaSncXBSG7X6FiWs8XfLhJqsLNx2f31CWyLvsOwEyV5hVZPSDK27AGnSR2HVa/U6t8byXP0H/bHRHD29ibjmoSF8AQl/PFv5kpxcS7ODvqcPzOK57EKU5LKkKUbyThYYXmq78lT2W1U5JUneX6eBKskV/+gvzePDnGVWIL3R9MJRS/IFzUO7Kte+6J4X33fZQqdDqipeuFlSrmUMs6LmqnvzxeX5cXvBfWiPC7d9y6qH9Bs55ixhPlI/bylTO3E+6DoMx57FXqTepcnLhD5Fidt5GkYafXnCbqGfMj/BSfRizWmXsJCf8f2aXrHmnPe1CfnUcZjeZun/sGTWeriXdZMACrpx6L6Ey0lbJCj4Tab8JHSl/izyTmiDoPmuNlZwwNFjjHTq/9UJwXc7M2VfECn99Dqd3z1d1pMiXB7p68+nCmWoGL1cq1fYLq2OhwMs2Z/0uA69kJdUM9Qr0AQ8UZ/0O7UOpQhitd5kdzhVjmay1WP+mRBfb8f21sW9+BlA81A1i/KvZ9ZcKDV/qcTtT9vbNqihSz6m7OnN0sOtAXPoGYajV9OM7bwW2LsE6f+FUkt6luJT6bvco6nGVv4rAHdwyCiJ2O1rE/kspagtIfjTt+ukNSiKgJW46aNZVJ21RzCEq0JzpjRt3jqd3P+QtOOhWFdfQnSVl3H5nBSS4NL1+TzlmQjNt6Mex6zrG7K5y1Jw6KMGVSPULfkspbgHothFalHqVvTjC1s27z5Cexj1MOznC0Od3BxMs/ncVnWlt9vK1iUUDw+j7A03xYZHytWH9f6GxxsS3qZYMoumnrHEZQl3JF216PJXiRXeV/R+s48wtKcsy0nSKG6ax5l6XbltQHrHLWc7NeiHcxqJnVE/KM6T9AWQR+h+LGMYnUym032LsPlx4/SXI7RyzKirGQoW+o+ys5SRud+4ihNZ4IvQWlG8nITlcDpZvXGbBKMGvGblfaTcsotbR2JqT/f25qIV8P4NoyHAu5nHc72NkW/xqFliCny5xzSjCnFvtZhmVzOCyi6LJnXOyRNWaVl2L/gcLapFP0Gh5amUuQvOqRpKsW+0WFDM78Wjf3NC+WXvF22OOtCpDKZqVvVzZfDW9VoxfITSjEyalWxB7iMLXyOycu42CHow/l83pKMDKrVH8heA8lePm9JaBBUmZnA9JhFqtbURYM8fWB/krqhDk3ellbUB7XJbqTddgxp4M9tEcbceD9ZwYdsAbER/MHT6i9s1row5D9s8y22Q/yEcPhcqXVa/eMc2rRfJZoT06XP2KJ8x21RRf17V7Q7HA1c1fXpRH4y9Vlb4rplphDsf5jDWiUA/TmLNmwM/zAa7SCcz1t8suFTRdXUD3FYA9nGnZ3G0f0y9ReZ9B+2aPMb2Yb6A5tzfXYzRUvv9vaGYwaN51tQfyibfJJ5z1wN0wt0hKPNTLXUX3E3Ho7R7fX+HmupP5UF9lEPBXI3uXLcNl7+D8qCtJeqoVwvpAUvyQpWaedcZucwfT+kM1bGl/iEVj+Vw3WoxQ3xK3OoSnZZ/NOa8CHjM1T3qlflqFp4C9H0QhSamxQ6/RucQogRGt/F0LfVW3Mo+anvivrNrK9E6eRm+NNavU2zWJKL1Q5FqqN+O9dUhzjb5EBm+XfylPU+Gf43Nul3NZmkJDeCd0g4iKsYk2eXZWpHfbkufGeugdA8iw1RslnJPKUVI/NnWVerGetY/bKvP5UVmalAQiZUqN7qq/+h7e2KccVf5On3u7zEIvGG7BXMiz39N4lsJLgAD/Ujnvpihgs48IP5rxmmxkhNXABPihvRFG9qs/WyD/+3DEt9i/vnDFdG65gs01X2VU//r6xMXLL0juLlnvrfuSKGqV7pqf/m9dOwcowN1//F20M9cBvFQYxx5/TzfGIBR76IdFz9F22wXfTFGYtl9d+ZF3NsuczrsbdoQlEPWbzJ4qQH6iWe+pA3ZhEcedP2Zs2F7jZ4biy3z9fY5A7wL9XLfPW93gifFsW9MIweNLTv8Rmr6ZxzVfGANWN1LngZgcnQ0t3op7nhHUSTFiq0xVJTv0MsTVb33r5h925f/bukLs3ERA9lyX2qoL7oPWgiyvKkjkM/QoywGOpHc+iy/cDGIhNjkRUrgfBgazaNku9vvMtTP+7Ky/1tTk0lGMbMEh3hRsmWVMf7B7P0cvPFvvoZVyDbPFd5LMRXO8zG5AJWzKjVOz31b7FGZw0+xPafF7kz6p9HRLJAEIPrBnfulsxUh+Szjl09mvUHIoqX+OqFDhdcEBniw+vvd5gWngW7y2E9Gh9Yg/9jvv4Bz8xze/JgYpVj9RGPOIJBY88O9sZzJb9hS6hgtSpWH/M4QRmkJT8rO5VB/ybxSLeGMVlyxGBud4bmvYFMxH+9pLzFquJAtc+xMCH6khdLSbgfYa+njYloy4r6Pt+8+8IUv0+r/2lJOoIx1d6v1f/K4QhlsfWqF7pjTrS3T5RL4oruPuIH/MFQIht7NI/UqgPs+3/kKkEOde3JZEb2cy6byIJan+d62NSqmRK5ujdL75889YWkyDE0e9oXPfWfE7yt0uofxNjRL3nUIaLOgqkMRdVlbr9qZcPBPRgf7K1hEFA49XJf/U9rcymQoSYFr/DV9xAUY7NDl48ZwHopz+ybT5SMWcdwPZnlbPGqrCi7eQVpxOvUJUhLXI5MQJhJNAu0aZ+AXHkp1pIHMUayij2bmkez2J8b5jGWrLY3ZDy1IQkkN5K4nC2uz8SmoSTnMfgQPCyftyTNLVbY3Ed9HqcecxRnSe9l5aBheYcRR/Kxl2It+X2EEQYE8s1XcGhPPUk98QjKEj7bCiEkfAEuZlPR3ziPsnToHXEuMwmxeCpPV0+ax1iyrZFREAleE9nU+ptyeUuxbZ9Diw4Ql1e3ZVlbPthBzdD8+DyBJDOHTFV8CdISY+pM25M15kArNpc0awku2LGsInWrF0l9qB+UACWL8stav1gjOaObogWUvVTHxlPJPh5wv/pZ9gk5/YR7LK1dRMOkvsbRERaJiUlsqddr22JHhBOHm+sCwPBXHCETxTxtE7YNjVn/dvav7QxH72Hya9w5cjtq/NBpNE4W1wpXS5ZLaq2f76m36757SfICT/1BshPagK+ga2YGNt0+WFTv1mPqEnMja9b9F7T6QxPOHR15PvcZrd6TFIhDItYuIaCXf5SUZdKtihQZiRB8Vqv3XkpRyh6pfV6rPzYEKIcxaA+ovzSy6OO7TLlDEjm6KzA5Y5XG+KkyAbLrfty65GV40iRyk/k4rf42YyC3UMLhIRh8Qp+PDgnGnTuHZN/uq0/qCxM8zEC2n9bulGgt8v4HLT2VDZNAze5qtDOZ4okS65MBPqD/o7utqOEoxOxg+j/pGdMtsTuRvHqVr/4zE0JHd5vcZbBO6Si+yQS7SCATmI58H35GPMuOBi8izrUVDQyDd/nqpR5hyd16hAE2qJcX8PRQCuZZZpnuOU16t6d+wouH7BGc4JI7gVZ/HI1kuK/y+tuMxMTCNjr1miyPtxbUmzwJzrWxOOptBfUrOaKae27wZu+CkIAxzb+hQJApwZSxOgd7jEzc6331Xk/9Wlomp9bVw5BNnpIPeDg/SYngKIzVGwv6bXksm+J7tPqtFNWOCBqgy0YZX1ngyiMpka6Ymysc7IL67RTfYZbHDUwFHf9Eig23J/tQvrmg/56thi35EBW5iD+oPuOZxwShuRTiaKRe4G+hVUzEZlKXbg2kW//DO1IC+jMFrky4HWJFWisRXGQrGUgpIv8ef4qhSMjPoOAr6vm+WOHJzk7InB3EIpsPFdR/8NhCqZcsLkF/wlN/5NCJmyToT3uIeW/IXiyElot6e0H9Mf3IXSzT/Ps8dIYtHJfyTZ76E0bOGQ9fagf3Qb2zoP7Ss5qJ/hglZjzv1HhK22J12jZYnZm/dxdwjKYWa92CFfU33mCyTdyc8Hie97sK6m/hzS0PYs+/qmDGPf0p69+UYHvBejlcxlnhfNooY2k2mw63iBXF6v0F9Y9mFGYGzVA+XFD/Cad5D0cr/bTFd3GHlqDcpyy+W/13BIICcdEV0xDTqLhHsD9cbWGRZDKV5/fZv/bJUqj3aKlfm8h3VZTHOcJI0a8LVnqLENSyvFxV/NcqdUN59aA7zXV5KiH4XoL06vZrWX634aCCI5NsL8UWzeec15rts/YJx4LJr5bKZxxi0SDME7glvFN8YeNBWwfcW0DaxFuG+C7EA7WOjZHLEPkflOLOraXUVhgFcGGuisUWh3HTVrP5Bdtuxe0qc6cLD6ljLDgpyzsHLK+xxYBe7g2gKG32y4j3eFrPFwaUHMLqvFGB7EVism4qTvEzHu+Dx5HSgCKY+HLAs68N6M+FHI3YrdQeWIr3e8rfnMOoR9erobx9Qd7q6BM0LV/PXW/L16azl2Behqw2KvZNl588ZktelBXse7CsVtEi3Pux5K25fMg5h7XPthbnkcmTraV5dPq2a3mzGlZXa6Jc9qFcpdSR5z8rycu64+k7txPpF4OlKdOJ3tExn5ynMa1fQnQqI7L9uDyvKy4huzy7K1eb7QoIaTAV4VUO6Wqm+Ksd3rSYYq9xWNtAir7WfOyt0enJJ4KCdqcaSHvXWVGWm115QJqbpevr1ewp4w3yXjHJ3CglqSBvkqI09zDzuDB9eHizySbPFW8xOdONTrXZkOZvzV4GPtyUukeKj6gdfYb4KHm/lTX0mER3ZS9NN9pslXwwt0ryJAHlLJV0MYBl+bLBpetFqEE9oLwykN0sqZjj/WF4z5UFFAhTVvUMH2lPvaUg/NxS7ghXDt7sEhyz85tcxvKjsHxIugAiYT8c0Kvsne4lrMWjgjzH9uOXsHU0AQQZyxgkZtIrmf225RqALMfqk7C6pDygMGOz7wqkZ5a0Oov2jPsi7+TM+zm1WrNfQnfM8pt71thn0sZy5QGFWWOCJJKStJTQsS+M+8YBsu9IPwUFh1dseIMZM/PqzwiRcpxlO/2cpwoXCE2YzOc9Vdw7iNlEJfcFTy1Y1p2U3NMzgWvR+BxBfWysJdhMOHg40TPcQjaCrLSesmTDmOA+VKRzMZ2adeBWjyH1Kvn4QhqSEKnZ14Ud+0037ejy8Qmd/CZhTv6O0DJ0AQthBxN1n1n5qHDuHUw72lFecYyM7GZA9wfRDn1lHTx3src1jNb69ofzDStefztfvZFW/DIizT+IL5YvT6cKmbFWeWOt5Yc37WqF/aQXmm/v9+gGna82NoJ2FetSrdWsTbEF/lwL2YMe5RWSIbjF+C8oA8t802TYEv1RdK6/feh2906UvQkpzPGsiHCWrZDHdviEeZB1f2R5wdjHJciHmQr7Zo5c9arULc5kUp/nq4W8gBb3p/LOjOOM4RXjJKulfC+X5/pi0Z4vcRILY7tmdN1mXqHtb1RsDmWfq9yRDsjPusyHpIzYSXTyoypEzHbQKAc9+aUTiPnarSMdRZ9ZrnIkMNkVrYfu3CW/GHTYF/jaq+bQ80zgMZM+vdBXciBFbl+DuCOUysu/IFf0F59SPlAu/dXWXQvkFIujYb/86T4hqswvzki1DLsXVFAl++MDr9RhE9wIKmgVJPJB1LBn/ySHFOPRdNkipaVuHu/ePc/Hj5XvPgbLku02yqVOAGifEMsGRsaz1TKDNfeTFAtvckhHjQzKhYEbVu/8syYn00HsKw0KW9EslsqysdKICgPxzTpmWrP5rbD1O3H4BtkLgxqOiSl1XjpQka6KpJz3m2+MK0GORJOpHOjRcw8v2wB0fYZG4tkCuiHm60knWUP7DuVGk68zhMIM46W+8ofbhmfBco/Vj/i6GJumo0HT4ChlGXXssxzWwOIuugJyCTPFZsdN7mSPLY8p0bKC8ADmbjjUFZ37WkFYblfNt9pUuSWTpt0nzLxyKCbSP13aLKU0BQkckBZPh0bGC8bzvUdQi637OhsGubQuJnY5NOhj4dmqcW5XzjTl/TnQ8XY3FMyJ1ZL5GN9Jjk7ypV+zEE9V5QRBGC7IxY4xiPZheVJYQWuSQnYkEmNRSwS35AvED/nClcnad0jkZE2irFqvg/WoEYQRxhjNESCaB7etA0729mLq1T4zxH6DxyPST14xys8AosYBEZspucJqVkEVjBdqVorqNrKMTo8KbEe9mv1mnm/7MLanFe/YCNCweR2GIZYDHxa0qI5dpgtsqhK+SM/qHIAZ4Ot9tTyYR70BvZpHiUQxFG/0VWEweXDMholTlzZWRAdjZBGNtw8z7IKIBzFPZ00b9CyqRXmpPo1N/5s7NcrRuaVKtqtIgR2Ynu+A9ElLqRmrKhplQBzKiSsRj04FmGA840fd020aA+NvBCWKgQrh5aShks9wq5r5tJ5umy9U4iXMk3m2WNlivI18sZMWFrpuv54NiQruTeHsd8xCmcRBveJQ9j7NbFH5TaiRLYjVr/t6/qdzMROLcyqfWtqD2BlBBFxMOQeGi7c4zFrogOYOnL0nRc1ddqO2aUHurttnu+lk8U/cwEvCn0XC0miAVBBPDUeKegt7EhHZIMIOivxi2rdNd4DoGHeTuWbg72JzLk/GxHBg0h+VTC9k5+w7CCEQOXAEsttnPzkvGRLl3ZJ1Q9wnlibizHAdSNUmXm6KyY+SO2d2aENzrypkNNJ7O6DcKENzc3nkal9+Oix325QbNm354W2CsQ8VliQsM7pslHz50mj7saxB9nfuuYlPbU8JItLYiu3vGvfLUq6W9XHWz7RvCdyK21InZkbGicSNSE7O4zbFvKlXFdQpM2FOmO/w1BWwc823aX1mY2JJj7kXw0SOu9NRddyIHuTwBOqqedbqzb66eh5lVjezd41pLDw/3O9MRMTI99oUtXpY2jNng2V1HSK0cx5TTV+fZjMdeYuvbzjSVSuFXF9vPEJQTVT9QpR6bhL+vmm+tyGU5tD7sHl8evS9eR4P/RnjnN2SKmcIhdyPtcwbCEJPbkMnsJ375UL2K1E8F7faKpF5yqKKZ4L7kl9vsUGcaeCXEIdoED6q1Ywt0/euNu/t4eoBe63wLhKfHbVT3pAYBrkCvXJcWVLno0PZ52NV1CwPg3VtvQ2rs0Gn7TNdzzswv1szz/UZrFdHSvTRWk6ayv/Rjmbrvl6lKzYuceUssdggqaz3bD4adNHk6gC+XopaPUyR/g6x4TNGiIXYNvQOn/NmQmoJq8jylJgYh00YWPxiwD5rb0a8E24M8XS7ayBvNpyhmrQ0S94D24LCg3Kxj84Vd228GBsWCaMOEqF8MaWvytti94h4aYd1i1bmceK9XWC1yFXcMS5Rzw1RV9nfyK8g+NzEHzctbFoLbgRwAo1xLz88/8CMCqwcmNGi0AVSBcWhAsJs7KD8GvOGrUifonhLB2ZsOhm0eDZJ1/z5rhQuO77iZca3ME951sntqIASKS5t0h25YsNn2u6PL/RjucWK3BtPtp59bjFHrtssQs/kK5EsWBOVtpXWrRYW6vKHY9gut210+YlK23LDtDbZ7pvxbCkvhw7ZPFnt9rNng6McLacN8x6njWGl+iLncS4IzhM1gIZD/r5Zv3ANj9gW81oILu7KNTW9XoeJZ2nhh19gQcndgfmhDZBrV+9OZlw8zFzWiznIOTixAWllO5vFic05qq/FgHm2BqiamLrJ2JUVXLVVDP8+59JZdSA/xCmmbYaZRSuZirZ181tXHOo1nEt0sTPZ35vg4m0T6ReNpD/Yupw1BIfCzeMMJ1Rv6u7sErxYVHxsgh0o5yQUB6fMFdg5W8ErWi4NqOBKS8O4hRzohehLmglFpcD4zKgEFWRnIWykC30zDHntazb0WFYOs4q/xG6AgAahtIjF28KjcSOqSDtO4LH6EMfzTrqJpA4fVjC7mFHtgJCMudvRSMc43tKzLaJBdjRYwwmOg2nso7i04+jBNONdMi0VmRYfKJlAMEzfMN6wlNVxI3rwyBCYx0HauY9JCCUJE8xEznI/LVwXqxk6ETVijiVnWtFHm026F87xoXdxwieHLpjf5KpPY7nF7pXNAsOexfPr0K1cp5fm1x0yxS5vzjphUgPRxQlMbeZ1gEf4NetLPkzqtM0QtzBzYIWqOS1zu94nPkWsccfVQdEYRjkajYgEVwWzkGI4JRvM4vyctsxQlS9fHydgb85uqsTdggUJKtTrVYL0kvHmq7LPmRcrSGbfcEFg8gr0HHMqr+7ZqxJlxQyGMjnEd+Vni6zG2HQskbge9eNZonSWu/o4SnUpOoQNl8Gf4ZSXZ19A7bFfKX9/a14Pk6VQ5WQp34X0YkOf2js/GZr9dTLTdWnT0qPLdDRMe+SYuk7E6nMcfeY6acwwkeXMzHMTmXBbE1lalqyDBSql8orVZ329SBnxJPtpEgJqKAImB4Gz87CpdGze25QTThZ2kmOHePHRoEzIBA2gykaEV7cV9WdMKes/kLiaCZGpVW6J0pzusjPTqHTIe3hMy/QZcS6i+QlTeuo5p5BQscRhns0Slw3UnhmKsiua3fO9rOY9+hmp9/kqWwzqAb002aKhC4wTY7c8iNixo4bleQxbgHkwmxk35b5esSJONrBYfcCXz7c609+0k8y9kK9P0NSU3q6ok2bOEpoNawhYCafm8K3LbDlUf0BOEo4kYV8RyWJSr9wnlylNrD7v66u2c7P0BU4QF+bm4598dQ3L/uyUOBiyu1Y+xryGHx8y2yiRVtflTFJi2mL1CV9fP2OCnSn6pK9ukGyYSvFTvroxnZSS2TpCJuqmncn2QdwcdyB2dTkO7Kbz/0WfQ0AyvDDb6EqGa0V6/GFf33JheJlt7SO+vnV7NGR6ENOKengqN0Yjjx+CUSQerq3Bik/nQ/fHk/Gh6EI3QRk3BAizh/HgRBPbNthSQxSAWFd/f/eeg2h6mAvBzjnwjQ4xFe4QuS42fydNt2rddRNlweeZ44BxiNmQxSFt0CptcpzZxw5hFbYS7l/Gvkip7X2czp+nt0aoqwnFOePBcrCixfli9EwGMQGzAqzzKnPhLpaW2OvtJQ0WaQa+He1ZE27vh1BAXG3wJuvPgEQ+i6pAQ6tyqiji3snd0iIRKrS3zfJA3oMQbAdqBra3byovxqC68rFBvPx6djmFwcm6QAXRU4hoXCoAsZC/Nmd28HA22cd3h0Xqg0wbkz0OCnb83pyxGMZlUWhihlKDyIerYTs0TzvOuLyAKEnZ6NfqdNIfbNMprv3mqLfn5f4vmOAZfZ2q5xXEh3TtqBcWML3J8m7l0fYmUD2/oBbqMEYWynuUUKE3Ot+Uxyo3gHl94bRCvd3TRq2T/JeIXw+Ft3Tossvgn331CKNB6oVaLwi02o8xOXZXulUutfojZ/wW+9vbdEEV1FIsgckQF9KWLCf5jnT1mepYki/jE9CYQT9LrZh3X3S7qI4b0GkskRWTXUsPqydtw63+4QhRgzgVzy0aua39iq+vyA0+XRJf9dWVO3DatMdAhnGV4V5F0Vhl7DqHzYNZLKIYb48w3AR+ZKtDF642hPK0mo3pAXUNmkKwCrM4YoccdccDMTrb59WLC/o6g2pHOdT1W4lexOpFBX3DNNq2FjCMvvMgQuNcxHpR3WjaWZ2ihrt42RzL1+iwHfpNpiwgLkOwXeT2Zk89bF+OBofj7RLziDGC7Ob0swhcPUbm0CJfKb4Fd3V2KI8dq/amsEaXGMHDt0fD/S357VJqo9vROf6N1acL+pH0Dkk6CxLb6X9JQT0quAzenlyc1I8YnqMl6Z21J6plcSl1TnUtLlYvLeiCfJG0JG/Jc01zMDzHCJmT5HNcsKwMd3bKuwcSW1nJWGEStLb+34LyBvabbA2KWR34BMbFrQqngoWdChdtrsogWS/oHkJb2Bbuccn8dBU16eyiEIKiicUtQoaiUaj3xpAVNt3ePaQJvbR/KW75csTrDEim7Nj+5fErMr5kBXgLY4aQjBCW1u7LqmWMTg5cWBW0L9lVaU/IClsCtUwLjXkOxf3LYRfaycNXo3zKc3/NrtIjMTuZSv4stE5JK7LuPCJQwBs2qqGnSaHh87ICnmDfbuZCbZBqRa6Eg5Lsimqt1izJ3qnDjvxdOSCvVKuWzIWYuTQEkM8StoPQ/QHtYt1ceS7kr+sX7XMeuaYntyQ3XMkN/3K1sQlHoTqWdKUd2YNz1qWlr92ltCe27WK+7YW5thfzbS8lDZbG9mqMy6aHuEpfUd4OU+5yHFS4BenHEtIvGIfW4p+titHF/SnmmDVsUa9h09hzF+DqdQV2XPfC1GLeyeXQDuY4FNNsUa/nll8altFbDPf48plNxzeNh6ur5c1besnr/taxzWomRP5ipX1hZW/YzMWz+8PrlaroC1AhuKdbqsl8FhtNLsElR2aBa2/5S+5G5ItppsctcUKytN4OUMG2KSC/nM/nCY/ZPxG2YqboOK2QnLCTV12T3pykVsP+sdtT9Nd8PK5XazbPmHv8KxqB+wzrlVV60e52NoTyqkwiKHmUZlLxvLqg5AcIDl2anjuQHdaE2FOlryczYyLGzLK9CYUmWxjQ4KsZfKxeW8iekq0l80ZtYnB4yJxNqKn78ZroisApF5lNfErDRm4i9ACEUe5XQEUn5zX+lbgmSdUwMo/EqT0UC6nH1jbiis09MknphcmmtMPdkmbIZl9+U67jGUFAKa6ufH5GPACYX8jRzA3AvDtmruTv94WEwgPRGfNqxATq7S0ugYD5J4yeeSiYPdXz180KLQgXebsjNEXzZVCTJbcQbshfCHc5u15dZgmlaZrPLS5bqJfYgmP2o4hpfsXlE8NwPHtaeKLMWNm1Z/2LLW6oduSJnvLPBvJBXoWmtpsIgpEMm9I3zz4w6I822Wzw+J0i4BxpeQEgPx1QteQ+tdTuVMvGzGj5C+R2JXqN0iaJX3LfNi5syN88Km7cwb8LG3fy7+LGXfy7tCF/52h5427+PbYhx2sR1Ep6mXt8rcn9rkAnWPYs7xDwpNCc2hDsFdhgkivn7oKvMm97ru7Kv9fUg0aX9Nqa/OG36yqCu77S4d8bKjLiG9eq613D4yagcqnlBvCwOmcm0puxGSS3iOW8Najz78NlFowFfkRYZ0YBHim9ehSiFj6Pvod/HlNZk9qPLa2uSjcf515VPL4tLX9dWwbw9c4eP0H+mjDpN5QxAKRPxBiQfGNYMn+T8ElnVqWf34SlI7ktNAK6XQZzhyDulMHd5f6+3ZNXzZ+3u3u1IjPzlLBlTNRTTReedtYkT29Vyx074G8Om922+QjgM6p1Gc+3EPCQET6zVlo1f3z+W6uNlvlrxs9a7XY6Ri4l+1wGaFX67+7iWRmdZPIqwFaGgahxCfsIvNbsdiyvdW6uMJpmJjfq0Ei35G/N1yr2U+Kna8G6fZZ0Rsx4W36bop6dqFvD3obdVWrZKynb1K2rpQZLEKhMVK5VC5h2mhaZV9xCrTbWhEHgBrnmJngdTZUvXls+G0R8LFQNg1Lb/DXI0/mXRCcydX8466xbb6S6+mgO3ZyzHafHVKry4Llp+vC4SvYd7Mcngnqi1GQ7APxGOwFPcuK8TVK0Sfp5Ox6P9OIOthBp9clofP7z6k9pN8+SPJUkYfw0YOFtevX0jrzmAnhmB29i1ehWKZ1OXd4Iyme4ZAT25PPK5cBotF+z758KdLrrelJM4FydhQQntk/Eu5jO/lIyz7bN5YTiWFhuc79psSvmo5UCnQxb1Ubar1P0muRKEpTYKONVok221as77SCQVoGvYb5XmxZ/rYyA9DqRn0VdLx0kvUFS2+aNpieJsG6iCSEHfJiwJb1ZUsfqFpEaDgTgaolLWaE7U2vKbNXqpfY9XVOjbp/GAaFndTOepqGuVEuWuJVC91jFst07bm9zga6YM2GPyCzRI92UPKrCynO4xwb11ga2VVr8urXARKC/HvtlF/YTWD5B2/zl1W+oNkK6YWt9U7La7hR9Nm+3yNwdJvbsm7ExTI596/UMLA1XHkn2W6gp4v5WGR/psxIXvC2ahhb3bicTJpk7yHSSzJ1kuknmLjKbSebJZIyqSuZuMvdKxvTxvtTy3y97iJ26b8t2mG+X9euWNtnvkGkMek5WD7ABrxtj0qsf+amUpwfxoCw/sDWfRDRfIzVnQevxRPgG4jm8A88hXxSAx2dIP1e6I3g5+UlAqD7hoDMkIHT0cO2XxU1uud9FKc99Al9ln8AnoysEIsVLmyf2MYOlsliPy3w5n5xXvuzvtIjNWQupzG8iOtnfFtcGEIyUgPBKmNf011bZcaA4dxyIKXcvXPG3jhwIhmMHF4nDGcLSdNp3jFZ0ca4F8a6Mnyd/RSE92aB+zD6ATvwYr2qm1LclyXuvwiW8cOFmwu69OJYXTIvvwXWbIzM/sMtm9QPM6iXlAYVMrddPkAzT8Xsf/Db6xFpyv9dLyBNN2M2Xy7fXLqmR68AH6UBAPMX4lS7IFyV5Kkgo/6PQxOP+frxLOF59BMc9SCkcGo47EieyxFmxMKAsNunH8kW0Y2T1cWQ16ttfdmZ8O1LE1WF6KsXFDTk/Bh1jI3UXI0LqpYFjP7wvtPa3gInv9EotcTyKzYZ5z8KskVsIrUq28PMjzgx9JCtzCy/O8BAoYWueIZusDuY+78ZMssUHFLDnm70/+bCwZWilVyDsNNqpDtQppWfu+wgmxyWQzTWQE4OVwDYd+ATxzvJDxJ/gZuMQMq1jFr+EPjwWdC4y17Qhny3lm9hYVeIZEtt66EBeITlLVAdNTswWlusS+dUzXc1+iUOGozWqZ7M5mndrBCcRLzl9bUq59LokH53XxRnuOBo7luaYVILEsjL3+hdJCoNop38woo6o87IqXp6LLdZc6RtWF0yWW8qU2p340l+W7BME5LppaP6mu/dg8iDEHxKkJ2jMqLEG0WxbXo8UL1zSFPd/Bb2Qcl8Tg2d+zhglDTB2OcBiQ730T8ozhfSCqyQiczmeYD5b0MWD2JxN5eiybX9nTTdcG4ZD2zLXHhf1FgNPuahPM3a8obSSJzYIioU2gS2prWlwcVpjxyAbkqFOLIW2LFZfZDGbigkioVb/xGI1pOpLCY1ZDsmWojQXi9zFyC2pCStmJHDhZkg+c2jkpWOGLiTcHti6sfoysTgRjqmEmsfbu9yubKYyZjtjBOoLND11PftnzuKRZf8V1sz/AYcBAACVUUtLAmEUPXd00mp6OgW9LXpsgpwZx8ZoE0XhqlZBKxExC3QCNcNN1qIHIdHDdBVUEFSbWrSLoIWbCKIfEFS/oo2LvhmtZeBdfPfBPffc71wiDhYId8XcA1evqXPzC9rijCcoS5o0tSyn4tNBHxwQQS3oQBesVgI4WImfWgmuRkN6AlVkTwOohmA4ZqZrxCOHbQvrBsHkQC+sHD8XCIec0n8ghxE20BoDvtLBhAElBhV4t+SWFEXxqv5RRRv1qqoqyYpbVbx+WVJkF0sVj+Z1eWT2uPy6yWJDmad2B4jsYiNbItzDZ7/JycrpuhKxiHaj0kXd6MEgEW8xUvZVshkBM9PZSbyN5T9iVzfjtvMl+0woo38Vtq65CtdjS5GY/H55HssUs9FmZ+ayPuxzn47cVz6oCTVcK9VCWGfrOd548UnAEA4JR4RjQpZwQsgR8kSdaNtkTQMYxhkxhS/eC9WcITH6jOv49EQopgcizlk9knJOBvRkII6qXw1L0pVlMCX7u9U+sWk/(/figma)--&gt;&quot;&gt;&lt;/span&gt;&lt;span style=&quot;&quot;&gt;&lt;/span&gt;" style="text;whiteSpace=wrap;html=1;" parent="WIyWlLk6GJQsqaUBKTNV-1" vertex="1">
          <mxGeometry x="1400" y="320" width="90" height="50" as="geometry" />
        </mxCell>
        <mxCell id="0sAgCjUpDcDhd4yGh7yJ-3" value="" style="edgeStyle=orthogonalEdgeStyle;rounded=0;orthogonalLoop=1;jettySize=auto;html=1;" edge="1" parent="WIyWlLk6GJQsqaUBKTNV-1" source="0sAgCjUpDcDhd4yGh7yJ-0" target="0sAgCjUpDcDhd4yGh7yJ-2">
          <mxGeometry relative="1" as="geometry" />
        </mxCell>
        <mxCell id="0sAgCjUpDcDhd4yGh7yJ-0" value="Get Joined House List" style="rounded=0;whiteSpace=wrap;html=1;" vertex="1" parent="WIyWlLk6GJQsqaUBKTNV-1">
          <mxGeometry x="1000" y="522" width="120" height="60" as="geometry" />
        </mxCell>
        <mxCell id="0sAgCjUpDcDhd4yGh7yJ-1" value="View House" style="text;html=1;align=center;verticalAlign=middle;resizable=0;points=[];autosize=1;strokeColor=none;fillColor=none;" vertex="1" parent="WIyWlLk6GJQsqaUBKTNV-1">
          <mxGeometry x="955" y="478" width="90" height="30" as="geometry" />
        </mxCell>
        <mxCell id="0sAgCjUpDcDhd4yGh7yJ-10" value="" style="edgeStyle=orthogonalEdgeStyle;rounded=0;orthogonalLoop=1;jettySize=auto;html=1;" edge="1" parent="WIyWlLk6GJQsqaUBKTNV-1" source="0sAgCjUpDcDhd4yGh7yJ-2" target="0sAgCjUpDcDhd4yGh7yJ-9">
          <mxGeometry relative="1" as="geometry" />
        </mxCell>
        <mxCell id="0sAgCjUpDcDhd4yGh7yJ-2" value="&lt;span style=&quot;white-space: pre;&quot;&gt;&#x9;&lt;/span&gt;View House Detail&lt;br&gt;&lt;span style=&quot;white-space: pre;&quot;&gt;&#x9;&lt;/span&gt;- Member Section (Avatars)&lt;br&gt;&lt;span style=&quot;white-space: pre;&quot;&gt;&#x9;&lt;/span&gt;- Room Section (locked || allowed)&lt;br&gt;&lt;span style=&quot;white-space: pre;&quot;&gt;&#x9;&lt;/span&gt;- Device Section (locked || allowed)" style="rounded=0;whiteSpace=wrap;html=1;align=left;" vertex="1" parent="WIyWlLk6GJQsqaUBKTNV-1">
          <mxGeometry x="1250" y="468" width="250" height="168" as="geometry" />
        </mxCell>
        <mxCell id="0sAgCjUpDcDhd4yGh7yJ-4" value="select houseID" style="text;html=1;align=center;verticalAlign=middle;resizable=0;points=[];autosize=1;strokeColor=none;fillColor=none;" vertex="1" parent="WIyWlLk6GJQsqaUBKTNV-1">
          <mxGeometry x="1140" y="522" width="100" height="30" as="geometry" />
        </mxCell>
        <mxCell id="0sAgCjUpDcDhd4yGh7yJ-12" value="" style="edgeStyle=orthogonalEdgeStyle;rounded=0;orthogonalLoop=1;jettySize=auto;html=1;" edge="1" parent="WIyWlLk6GJQsqaUBKTNV-1" source="0sAgCjUpDcDhd4yGh7yJ-9" target="0sAgCjUpDcDhd4yGh7yJ-11">
          <mxGeometry relative="1" as="geometry" />
        </mxCell>
        <mxCell id="0sAgCjUpDcDhd4yGh7yJ-9" value="&lt;span style=&quot;white-space: pre;&quot;&gt;&#x9;&lt;/span&gt;- Room Detail (permission == ACCESS)&lt;br&gt;&lt;span style=&quot;white-space: pre;&quot;&gt;&#x9;&lt;/span&gt;- View Room Devices Section (Camera or others) (permission === ACCESS)&lt;br&gt;&lt;span style=&quot;white-space: pre;&quot;&gt;&#x9;&lt;/span&gt;- Room metadata (name, description, created) ( permision == ACCESS)&lt;br&gt;&lt;span style=&quot;white-space: pre;&quot;&gt;&#x9;&lt;/span&gt;- Room members (permission == ACCESS)&lt;br&gt;&lt;span style=&quot;white-space: pre;&quot;&gt;&#x9;&lt;/span&gt;- DELETE button (permission == DELETE)&lt;br&gt;" style="whiteSpace=wrap;html=1;align=left;rounded=0;" vertex="1" parent="WIyWlLk6GJQsqaUBKTNV-1">
          <mxGeometry x="1135" y="710" width="480" height="140" as="geometry" />
        </mxCell>
        <mxCell id="0sAgCjUpDcDhd4yGh7yJ-11" value="&lt;span style=&quot;white-space: pre;&quot;&gt;&#x9;&lt;/span&gt;- List of joined room members (with permission checkbox)&lt;br&gt;&lt;span style=&quot;white-space: pre;&quot;&gt;&#x9;&lt;/span&gt;-&amp;nbsp;" style="whiteSpace=wrap;html=1;align=left;rounded=0;" vertex="1" parent="WIyWlLk6GJQsqaUBKTNV-1">
          <mxGeometry x="1740" y="710" width="350" height="140" as="geometry" />
        </mxCell>
        <mxCell id="0sAgCjUpDcDhd4yGh7yJ-13" value="View Member" style="text;html=1;align=center;verticalAlign=middle;resizable=0;points=[];autosize=1;strokeColor=none;fillColor=none;" vertex="1" parent="WIyWlLk6GJQsqaUBKTNV-1">
          <mxGeometry x="1615" y="748" width="100" height="30" as="geometry" />
        </mxCell>
        <mxCell id="0sAgCjUpDcDhd4yGh7yJ-15" value="Search User to Add" style="rounded=0;whiteSpace=wrap;html=1;" vertex="1" parent="WIyWlLk6GJQsqaUBKTNV-1">
          <mxGeometry x="1220" y="145" width="120" height="60" as="geometry" />
        </mxCell>
      </root>
    </mxGraphModel>
  </diagram>
</mxfile>
